<?xml version="1.0" encoding="utf-8"?>
<!-- Generator: Adobe Illustrator 18.1.0, SVG Export Plug-In . SVG Version: 6.00 Build 0)  -->
<!DOCTYPE svg PUBLIC "-//W3C//DTD SVG 1.1//EN" "http://www.w3.org/Graphics/SVG/1.1/DTD/svg11.dtd">
<svg version="1.1" xmlns="http://www.w3.org/2000/svg" xmlns:xlink="http://www.w3.org/1999/xlink" x="0px" y="0px"
	 viewBox="0 0 241.5 200" enable-background="new 0 0 241.5 200" xml:space="preserve">
<g id="Template">
</g>
<g id="Layer_1">
	<rect x="21.3" y="60.8" fill="none" stroke="#000000" stroke-width="5" stroke-miterlimit="10" width="192.9" height="87.1"/>
	<g>
		<path d="M40.2,86.2l5.4,23.5l1.2,6.5l1.2-6.4l4.6-23.6h9l4.9,23.5l1.2,6.5l1.3-6.3l5.5-23.7h8.7l-11.5,41h-8.2l-5-24L57,95.3
			l-1.4,7.9l-5,24h-8l-11.6-41H40.2z"/>
		<path d="M100.8,86.2l5.4,23.5l1.2,6.5l1.2-6.4l4.6-23.6h9l4.9,23.5l1.2,6.5l1.3-6.3l5.5-23.7h8.7l-11.5,41h-8.2l-5-24l-1.4-7.9
			l-1.4,7.9l-5,24h-8l-11.6-41H100.8z"/>
		<path d="M161.4,86.2l5.4,23.5l1.2,6.5l1.2-6.4l4.6-23.6h9l4.9,23.5l1.2,6.5l1.3-6.3l5.5-23.7h8.7l-11.5,41h-8.2l-5-24l-1.4-7.9
			l-1.4,7.9l-5,24h-8l-11.6-41H161.4z"/>
	</g>
</g>
</svg>
