<?xml version="1.0" encoding="utf-8"?>
<!-- Generator: Adobe Illustrator 18.1.0, SVG Export Plug-In . SVG Version: 6.00 Build 0)  -->
<!DOCTYPE svg PUBLIC "-//W3C//DTD SVG 1.1//EN" "http://www.w3.org/Graphics/SVG/1.1/DTD/svg11.dtd">
<svg version="1.1" id="Template" xmlns="http://www.w3.org/2000/svg" xmlns:xlink="http://www.w3.org/1999/xlink" x="0px" y="0px"
	 viewBox="0 0 241.5 200" enable-background="new 0 0 241.5 200" xml:space="preserve">
<g>
	<rect x="2.5" y="61" fill="none" stroke="#000000" stroke-width="5" stroke-miterlimit="10" width="188.5" height="136.5"/>
	<rect x="2.5" y="61" fill="none" stroke="#000000" stroke-width="5" stroke-miterlimit="10" width="188.5" height="26"/>
	<line fill="none" stroke="#000000" stroke-width="5" stroke-miterlimit="10" x1="7.2" y1="87" x2="36.8" y2="61"/>
	<line fill="none" stroke="#000000" stroke-width="5" stroke-miterlimit="10" x1="36.8" y1="87" x2="66.2" y2="61"/>
	<line fill="none" stroke="#000000" stroke-width="5" stroke-miterlimit="10" x1="66.2" y1="87" x2="95.8" y2="61"/>
	<line fill="none" stroke="#000000" stroke-width="5" stroke-miterlimit="10" x1="95.8" y1="87" x2="125.2" y2="61"/>
	<line fill="none" stroke="#000000" stroke-width="5" stroke-miterlimit="10" x1="125.2" y1="87" x2="154.8" y2="61"/>
	<line fill="none" stroke="#000000" stroke-width="5" stroke-miterlimit="10" x1="154.8" y1="87" x2="184.2" y2="61"/>
	<line fill="none" stroke="#000000" stroke-width="5" stroke-miterlimit="10" x1="36.8" y1="108.5" x2="154.8" y2="108.5"/>
	<line fill="none" stroke="#000000" stroke-width="5" stroke-miterlimit="10" x1="36.8" y1="119" x2="154.8" y2="119"/>
	<line fill="none" stroke="#000000" stroke-width="5" stroke-miterlimit="10" x1="36.8" y1="129.2" x2="154.8" y2="129.2"/>
</g>
<g>
	<polygon fill="none" stroke="#000000" stroke-width="5" stroke-miterlimit="10" points="239,139 191.2,139 191,61 50.5,60 
		50.5,2.5 239,2.5 	"/>
	<rect x="50.5" y="2.5" fill="none" stroke="#000000" stroke-width="5" stroke-miterlimit="10" width="188.5" height="26"/>
	<line fill="none" stroke="#000000" stroke-width="5" stroke-miterlimit="10" x1="55.2" y1="28.5" x2="84.8" y2="2.5"/>
	<line fill="none" stroke="#000000" stroke-width="5" stroke-miterlimit="10" x1="84.8" y1="28.5" x2="114.2" y2="2.5"/>
	<line fill="none" stroke="#000000" stroke-width="5" stroke-miterlimit="10" x1="114.2" y1="28.5" x2="143.8" y2="2.5"/>
	<line fill="none" stroke="#000000" stroke-width="5" stroke-miterlimit="10" x1="143.8" y1="28.5" x2="173.2" y2="2.5"/>
	<line fill="none" stroke="#000000" stroke-width="5" stroke-miterlimit="10" x1="173.2" y1="28.5" x2="202.8" y2="2.5"/>
	<line fill="none" stroke="#000000" stroke-width="5" stroke-miterlimit="10" x1="202.8" y1="28.5" x2="232.2" y2="2.5"/>
</g>
</svg>
