<?xml version="1.0" encoding="utf-8"?>
<!-- Generator: Adobe Illustrator 18.1.0, SVG Export Plug-In . SVG Version: 6.00 Build 0)  -->
<!DOCTYPE svg PUBLIC "-//W3C//DTD SVG 1.1//EN" "http://www.w3.org/Graphics/SVG/1.1/DTD/svg11.dtd">
<svg version="1.1" id="Layer_1" xmlns="http://www.w3.org/2000/svg" xmlns:xlink="http://www.w3.org/1999/xlink" x="0px" y="0px"
	 viewBox="0 0 1007.3 383.5" enable-background="new 0 0 1007.3 383.5" xml:space="preserve">
<g>
	<rect x="1.5" y="1.5" fill="#FFFFFF" stroke="#000000" stroke-width="3" stroke-miterlimit="10" width="482" height="335"/>
	<rect x="1.5" y="1.5" fill="#FFFFFF" stroke="#000000" stroke-width="3" stroke-miterlimit="10" width="482" height="26.7"/>
	<circle fill="#FFFFFF" stroke="#000000" stroke-width="3" stroke-miterlimit="10" cx="19.5" cy="15" r="5"/>
	<circle fill="#FFFFFF" stroke="#000000" stroke-width="3" stroke-miterlimit="10" cx="39.5" cy="15" r="5"/>
	<circle fill="#FFFFFF" stroke="#000000" stroke-width="3" stroke-miterlimit="10" cx="59.5" cy="15" r="5"/>
	<rect x="73.5" y="55.5" fill="none" stroke="#000000" stroke-width="3" stroke-miterlimit="10" width="326" height="86.2"/>
	<rect x="73.5" y="141.7" fill="none" stroke="#000000" stroke-width="3" stroke-miterlimit="10" width="326" height="19.3"/>
	<line fill="none" stroke="#000000" stroke-width="3" stroke-miterlimit="10" x1="73.5" y1="55.5" x2="399.5" y2="141.7"/>
	<line fill="none" stroke="#000000" stroke-width="3" stroke-miterlimit="10" x1="399.5" y1="55.5" x2="73.5" y2="141.7"/>
	<rect x="73.5" y="183" fill="none" stroke="#000000" stroke-width="3" stroke-miterlimit="10" width="92" height="92"/>
	<rect x="191.5" y="183" fill="none" stroke="#000000" stroke-width="3" stroke-miterlimit="10" width="92" height="92"/>
	<rect x="308.2" y="183" fill="none" stroke="#000000" stroke-width="3" stroke-miterlimit="10" width="92" height="92"/>
	<line fill="none" stroke="#000000" stroke-width="3" stroke-miterlimit="10" x1="73.5" y1="290" x2="165.5" y2="290"/>
	<line fill="none" stroke="#000000" stroke-width="3" stroke-miterlimit="10" x1="190.5" y1="290" x2="282.5" y2="290"/>
	<line fill="none" stroke="#000000" stroke-width="3" stroke-miterlimit="10" x1="308.2" y1="290" x2="400.2" y2="290"/>
</g>
<g>
	<rect x="523.8" y="1.5" fill="#FFFFFF" stroke="#000000" stroke-width="3" stroke-miterlimit="10" width="482" height="335"/>
	<rect x="523.8" y="1.5" fill="#FFFFFF" stroke="#000000" stroke-width="3" stroke-miterlimit="10" width="482" height="26.7"/>
	<circle fill="#FFFFFF" stroke="#000000" stroke-width="3" stroke-miterlimit="10" cx="541.8" cy="15" r="5"/>
	<circle fill="#FFFFFF" stroke="#000000" stroke-width="3" stroke-miterlimit="10" cx="561.8" cy="15" r="5"/>
	<circle fill="#FFFFFF" stroke="#000000" stroke-width="3" stroke-miterlimit="10" cx="581.8" cy="15" r="5"/>
	<rect x="523.8" y="28.2" fill="none" stroke="#000000" stroke-width="3" stroke-miterlimit="10" width="482" height="154.8"/>
	<line fill="none" stroke="#000000" stroke-width="3" stroke-miterlimit="10" x1="523.8" y1="28.2" x2="1005.8" y2="183"/>
	<line fill="none" stroke="#000000" stroke-width="3" stroke-miterlimit="10" x1="1005.8" y1="28.2" x2="523.8" y2="183"/>
	<line fill="none" stroke="#000000" stroke-width="3" stroke-miterlimit="10" x1="607.5" y1="214.5" x2="918.5" y2="214.5"/>
	<line fill="none" stroke="#000000" stroke-width="3" stroke-miterlimit="10" x1="607.5" y1="229" x2="918.5" y2="229"/>
	<line fill="none" stroke="#000000" stroke-width="3" stroke-miterlimit="10" x1="607.5" y1="243.5" x2="918.5" y2="243.5"/>
</g>
<g>
	<rect x="260.5" y="47" fill="#FFFFFF" stroke="#000000" stroke-width="3" stroke-miterlimit="10" width="482" height="335"/>
	<rect x="260.5" y="47" fill="#FFFFFF" stroke="#000000" stroke-width="3" stroke-miterlimit="10" width="482" height="26.7"/>
	<circle fill="#FFFFFF" stroke="#000000" stroke-width="3" stroke-miterlimit="10" cx="278.5" cy="60.5" r="5"/>
	<circle fill="#FFFFFF" stroke="#000000" stroke-width="3" stroke-miterlimit="10" cx="298.5" cy="60.5" r="5"/>
	<circle fill="#FFFFFF" stroke="#000000" stroke-width="3" stroke-miterlimit="10" cx="318.5" cy="60.5" r="5"/>
	<line fill="none" stroke="#000000" stroke-width="3" stroke-miterlimit="10" x1="283" y1="104.3" x2="323" y2="104.3"/>
	<line fill="none" stroke="#000000" stroke-width="3" stroke-miterlimit="10" x1="283" y1="111.7" x2="323" y2="111.7"/>
	<line fill="none" stroke="#000000" stroke-width="3" stroke-miterlimit="10" x1="283" y1="119.3" x2="323" y2="119.3"/>
	<line fill="none" stroke="#000000" stroke-width="3" stroke-miterlimit="10" x1="283" y1="126.7" x2="323" y2="126.7"/>
	<line fill="none" stroke="#000000" stroke-width="3" stroke-miterlimit="10" x1="273" y1="136.3" x2="334" y2="136.3"/>
	<line fill="none" stroke="#000000" stroke-width="3" stroke-miterlimit="10" x1="355.2" y1="102.3" x2="355.2" y2="361.7"/>
	<rect x="379.8" y="104.3" fill="none" stroke="#000000" stroke-width="3" stroke-miterlimit="10" width="326" height="255.3"/>
	<line fill="none" stroke="#000000" stroke-width="3" stroke-miterlimit="10" x1="379.8" y1="104.3" x2="705.8" y2="359.7"/>
	<line fill="none" stroke="#000000" stroke-width="3" stroke-miterlimit="10" x1="379.8" y1="359.7" x2="705.8" y2="104.3"/>
</g>
</svg>
