<?xml version="1.0" encoding="utf-8"?>
<!-- Generator: Adobe Illustrator 18.1.0, SVG Export Plug-In . SVG Version: 6.00 Build 0)  -->
<!DOCTYPE svg PUBLIC "-//W3C//DTD SVG 1.1//EN" "http://www.w3.org/Graphics/SVG/1.1/DTD/svg11.dtd">
<svg version="1.1" id="Layer_1" xmlns="http://www.w3.org/2000/svg" xmlns:xlink="http://www.w3.org/1999/xlink" x="0px" y="0px"
	 viewBox="0 0 72 51.4" enable-background="new 0 0 72 51.4" xml:space="preserve">
<path d="M65.5,13.1H6.5C2.9,13.1,0,10.1,0,6.5v0C0,2.9,2.9,0,6.5,0h58.9C69.1,0,72,2.9,72,6.5v0C72,10.1,69.1,13.1,65.5,13.1z"/>
<path d="M65.5,32.3H6.5c-3.6,0-6.5-2.9-6.5-6.5v0c0-3.6,2.9-6.5,6.5-6.5h58.9c3.6,0,6.5,2.9,6.5,6.5v0C72,29.3,69.1,32.3,65.5,32.3z
	"/>
<path d="M65.5,51.4H6.5c-3.6,0-6.5-2.9-6.5-6.5v0c0-3.6,2.9-6.5,6.5-6.5h58.9c3.6,0,6.5,2.9,6.5,6.5v0C72,48.5,69.1,51.4,65.5,51.4z
	"/>
</svg>
