<?xml version="1.0" encoding="utf-8"?>
<!-- Generator: Adobe Illustrator 18.1.0, SVG Export Plug-In . SVG Version: 6.00 Build 0)  -->
<!DOCTYPE svg PUBLIC "-//W3C//DTD SVG 1.1//EN" "http://www.w3.org/Graphics/SVG/1.1/DTD/svg11.dtd">
<svg version="1.1" id="Layer_1" xmlns="http://www.w3.org/2000/svg" xmlns:xlink="http://www.w3.org/1999/xlink" x="0px" y="0px"
	 viewBox="0 0 123.1 43.3" enable-background="new 0 0 123.1 43.3" xml:space="preserve">
<g>
	<path fill="#FFFFFF" d="M20.6,22.8c0.5-0.6,2.6-3.3,3.5-3.3c0.6,0,2.9,0.5,2.9,1.3c0,0.8-1,2.4-1.4,3c-1.3,2.1-5.5,9.1-5.5,11.4
		c0,0.7,0.4,1.2,1.2,1.2c1.7,0,4.6-3.4,5.9-4.5c-0.3-2.3-0.4-3.4,2.8-7.5c1-1.3,3.4-4.3,5.2-4.3c1.5,0,1.9,1.9,1.9,3
		c0,3.3-2.1,6.1-4.1,8.6c0.8,0.5,1.2,0.9,2.1,0.9c1.5,0,3.6-1.8,4.8-2.7l0.1,2.7c-1.8,1.9-3.9,3.6-6.7,3.6c-1.6,0-2.3-0.4-3.6-1.2
		c-2.6,1.9-7.4,7.5-10.7,7.5c-0.9,0-1.6-0.5-2.2-1.2c-0.7-0.9-1.5-1.3-1.1-7.1c-2.2,2-6.3,7.5-9.3,7.3C3,41.3-0.1,38.2,0,33.4
		c0.1-4.5,2-7.1,5-10.1c5.2-5.2,6.3-5.5,7.5-5.4c2.7,0.1,3.6,1,3.6,1.9c0,3.1-7.8,9.7-10.3,11.6c-0.2,0.4-0.5,2.2-0.5,3.5
		c0,0.5,0.1,1.3,0.7,1.3c1,0,5.1-3.6,6-4.5L20.6,22.8z"/>
	<path fill="#FFFFFF" d="M61.7,32.4c-3.7,4.3-10.4,10-16.4,10c-4.4,0-6.5-3.9-6.6-8c-0.2-8,8.6-16.1,16.5-16c1.9,0,4.4,0.5,4.4,2.9
		c0,3-3,7.5-14.6,11.3L44.8,34c-0.2,2.3,1.8,3.1,3.8,3.1c4.3,0,9.4-4.4,12.6-7L61.7,32.4z M54.2,22.6c0-0.4-0.3-0.8-0.7-0.7
		c-3,0.8-6.6,3.7-8.2,7.7C50.6,27.8,54.3,23.6,54.2,22.6z"/>
	<path fill="#FFFFFF" d="M65.7,29.9c-1.1,3.8,0.4,7,2.7,6.7c1.9-0.3,3-1.9,4.1-3.2c-0.5-0.8-0.9-1.4-0.9-2.4c0-3.5,4.9-9.5,8.4-9.5
		c1.5,0,1.8,1.5,1.8,2.7c0,2.6-1.9,5.3-2.9,7.6c2.5,0.5,4.5-0.9,6.4-2.2l0.6,2c-2.7,2.9-5.8,3.8-9.7,3.9c-2.6,2.7-6.9,6.4-10.9,6.4
		c-3.9,0-4.5-5.9-4.5-8.8c0-7.7,3.6-14.2,8.4-19.9C74.2,7.4,83.7,0,86.3,0C87.5,0,88,1.1,88,2.2c0,5.5-9,14.6-12.9,18.4L65.7,29.9z
		 M67.9,23.5l0.1,0.1C80.7,11,82,7.5,83,5.3l-0.1-0.1C76.9,10.3,71.4,16.5,67.9,23.5z"/>
	<path fill="#FFFFFF" d="M102.5,33c-2.7,3.3-9.5,9.4-14.1,9.4c-3.6,0-5.2-4.1-5.2-7.2c0-7.4,7.6-14.6,11.2-14.6c1,0,2.7,0.4,2.7,1.7
		c0,3-6,8.4-8.6,10.2c-0.5,2.5,0.4,3.8,3.2,3.8c3.2,0,6.5-2.8,8.9-4.6L102.5,33z M95.3,16.6c0-2.5,2.9-4.7,5.3-4.7
		c1.1,0,2,0.8,2,1.9c0,2.4-2.2,5.4-4.9,5.4C96.2,19.3,95.3,18.1,95.3,16.6z"/>
	<path fill="#FFFFFF" d="M123.1,16.1c-2.9,5.8-3.3,8-10,7.6c-2.1,2.7-5.5,7.7-5.5,11.3c0,1.3,0.4,2.1,1.8,2.1
		c1.9,0,4.1-1.8,10.4-6.3l0.3,2.7c-3.6,3.3-10.1,9.8-15.3,9.8c-2.4,0-3.8-1.6-3.8-4.1c0-2,0.8-4.3,1.6-6.1l-0.1-0.1l-3.1,2.5
		l-0.7-2.3c3.6-2.8,7-5.9,9.2-9.7c-3.7,0-2.6-0.2-5.8,0.2l0.7-1.1c3.3-5.3,3.8-6.3,10.3-6.6c1.8-2.5,3.2-5.3,6.7-5.3
		c0.8,0,1.9,0.2,1.9,1.2c0,1.1-1.8,3.1-2.4,3.9L123.1,16.1z"/>
</g>
</svg>
